<mxfile host="app.diagrams.net" agent="Mozilla/5.0 (X11; Linux x86_64; rv:140.0) Gecko/20100101 Firefox/140.0" version="28.0.4">
  <diagram name="PÃ¡gina-1" id="nViaofqQAU2UnQfdQLmx">
    <mxGraphModel dx="879" dy="1170" grid="1" gridSize="10" guides="1" tooltips="1" connect="1" arrows="1" fold="1" page="1" pageScale="1" pageWidth="827" pageHeight="1169" math="0" shadow="0">
      <root>
        <mxCell id="0" />
        <mxCell id="1" parent="0" />
        <mxCell id="iejDGMarH2Thm3gZERms-92" value="" style="rounded=0;whiteSpace=wrap;html=1;" parent="1" vertex="1">
          <mxGeometry x="110" y="220" width="440" height="370" as="geometry" />
        </mxCell>
        <mxCell id="iejDGMarH2Thm3gZERms-1" value="Database" style="shape=cylinder3;whiteSpace=wrap;html=1;boundedLbl=1;backgroundOutline=1;size=15;" parent="1" vertex="1">
          <mxGeometry x="390" y="480" width="60" height="80" as="geometry" />
        </mxCell>
        <mxCell id="iejDGMarH2Thm3gZERms-3" value="" style="edgeStyle=orthogonalEdgeStyle;rounded=0;orthogonalLoop=1;jettySize=auto;html=1;" parent="1" source="iejDGMarH2Thm3gZERms-2" target="iejDGMarH2Thm3gZERms-1" edge="1">
          <mxGeometry relative="1" as="geometry" />
        </mxCell>
        <mxCell id="iejDGMarH2Thm3gZERms-22" value="" style="edgeStyle=orthogonalEdgeStyle;rounded=0;orthogonalLoop=1;jettySize=auto;html=1;" parent="1" source="iejDGMarH2Thm3gZERms-2" target="iejDGMarH2Thm3gZERms-17" edge="1">
          <mxGeometry relative="1" as="geometry" />
        </mxCell>
        <mxCell id="iejDGMarH2Thm3gZERms-23" value="Spawn on&lt;br&gt;sensor value" style="edgeLabel;html=1;align=center;verticalAlign=middle;resizable=0;points=[];" parent="iejDGMarH2Thm3gZERms-22" vertex="1" connectable="0">
          <mxGeometry x="-0.0667" relative="1" as="geometry">
            <mxPoint as="offset" />
          </mxGeometry>
        </mxCell>
        <mxCell id="iejDGMarH2Thm3gZERms-2" value="Backend&lt;br&gt;API" style="rounded=1;whiteSpace=wrap;html=1;" parent="1" vertex="1">
          <mxGeometry x="360" y="340" width="120" height="70" as="geometry" />
        </mxCell>
        <mxCell id="iejDGMarH2Thm3gZERms-6" style="edgeStyle=orthogonalEdgeStyle;rounded=0;orthogonalLoop=1;jettySize=auto;html=1;" parent="1" edge="1">
          <mxGeometry relative="1" as="geometry">
            <mxPoint x="601" y="375" as="sourcePoint" />
            <mxPoint x="481" y="375" as="targetPoint" />
          </mxGeometry>
        </mxCell>
        <mxCell id="iejDGMarH2Thm3gZERms-7" value="Sensor signal&lt;br&gt;HTTP + JSON" style="edgeLabel;html=1;align=center;verticalAlign=middle;resizable=0;points=[];" parent="iejDGMarH2Thm3gZERms-6" vertex="1" connectable="0">
          <mxGeometry x="-0.0667" y="-1" relative="1" as="geometry">
            <mxPoint as="offset" />
          </mxGeometry>
        </mxCell>
        <mxCell id="iejDGMarH2Thm3gZERms-5" value="Sensor&lt;br&gt;central" style="ellipse;whiteSpace=wrap;html=1;aspect=fixed;" parent="1" vertex="1">
          <mxGeometry x="600" y="335" width="80" height="80" as="geometry" />
        </mxCell>
        <mxCell id="iejDGMarH2Thm3gZERms-8" value="&lt;div&gt;User&lt;/div&gt;&lt;div&gt;&lt;br&gt;&lt;/div&gt;" style="shape=umlActor;verticalLabelPosition=bottom;verticalAlign=top;html=1;outlineConnect=0;" parent="1" vertex="1">
          <mxGeometry x="414" y="130" width="30" height="60" as="geometry" />
        </mxCell>
        <mxCell id="iejDGMarH2Thm3gZERms-13" value="" style="edgeStyle=orthogonalEdgeStyle;rounded=0;orthogonalLoop=1;jettySize=auto;html=1;entryX=0.583;entryY=0.071;entryDx=0;entryDy=0;entryPerimeter=0;" parent="1" source="iejDGMarH2Thm3gZERms-8" target="iejDGMarH2Thm3gZERms-12" edge="1">
          <mxGeometry relative="1" as="geometry">
            <mxPoint x="429" y="200" as="sourcePoint" />
            <mxPoint x="430" y="345" as="targetPoint" />
          </mxGeometry>
        </mxCell>
        <mxCell id="iejDGMarH2Thm3gZERms-16" value="" style="edgeStyle=orthogonalEdgeStyle;rounded=0;orthogonalLoop=1;jettySize=auto;html=1;" parent="1" source="iejDGMarH2Thm3gZERms-12" target="iejDGMarH2Thm3gZERms-2" edge="1">
          <mxGeometry relative="1" as="geometry" />
        </mxCell>
        <mxCell id="iejDGMarH2Thm3gZERms-12" value="UI Frontend&lt;br&gt;React or Angular" style="rounded=0;whiteSpace=wrap;html=1;" parent="1" vertex="1">
          <mxGeometry x="360" y="230" width="120" height="60" as="geometry" />
        </mxCell>
        <mxCell id="iejDGMarH2Thm3gZERms-20" style="edgeStyle=orthogonalEdgeStyle;rounded=0;orthogonalLoop=1;jettySize=auto;html=1;entryX=0.5;entryY=1;entryDx=0;entryDy=0;" parent="1" source="iejDGMarH2Thm3gZERms-17" target="iejDGMarH2Thm3gZERms-19" edge="1">
          <mxGeometry relative="1" as="geometry" />
        </mxCell>
        <mxCell id="iejDGMarH2Thm3gZERms-21" value="SMTP" style="edgeLabel;html=1;align=center;verticalAlign=middle;resizable=0;points=[];" parent="iejDGMarH2Thm3gZERms-20" vertex="1" connectable="0">
          <mxGeometry x="-0.06" y="-1" relative="1" as="geometry">
            <mxPoint as="offset" />
          </mxGeometry>
        </mxCell>
        <mxCell id="iejDGMarH2Thm3gZERms-17" value="Alert task" style="shape=process;whiteSpace=wrap;html=1;backgroundOutline=1;" parent="1" vertex="1">
          <mxGeometry x="130" y="350" width="120" height="60" as="geometry" />
        </mxCell>
        <mxCell id="iejDGMarH2Thm3gZERms-18" style="edgeStyle=orthogonalEdgeStyle;rounded=0;orthogonalLoop=1;jettySize=auto;html=1;entryX=0;entryY=0.5;entryDx=0;entryDy=0;entryPerimeter=0;" parent="1" target="iejDGMarH2Thm3gZERms-1" edge="1">
          <mxGeometry relative="1" as="geometry">
            <mxPoint x="240" y="410" as="sourcePoint" />
            <mxPoint x="350" y="520" as="targetPoint" />
            <Array as="points">
              <mxPoint x="190" y="410" />
              <mxPoint x="190" y="520" />
            </Array>
          </mxGeometry>
        </mxCell>
        <mxCell id="iejDGMarH2Thm3gZERms-57" value="?" style="edgeLabel;html=1;align=center;verticalAlign=middle;resizable=0;points=[];" parent="iejDGMarH2Thm3gZERms-18" vertex="1" connectable="0">
          <mxGeometry x="0.6278" relative="1" as="geometry">
            <mxPoint as="offset" />
          </mxGeometry>
        </mxCell>
        <mxCell id="iejDGMarH2Thm3gZERms-19" value="E-Mail gateway" style="ellipse;whiteSpace=wrap;html=1;aspect=fixed;" parent="1" vertex="1">
          <mxGeometry x="150" y="110" width="80" height="80" as="geometry" />
        </mxCell>
        <mxCell id="iejDGMarH2Thm3gZERms-28" value="" style="edgeStyle=orthogonalEdgeStyle;rounded=0;orthogonalLoop=1;jettySize=auto;html=1;" parent="1" source="iejDGMarH2Thm3gZERms-27" target="iejDGMarH2Thm3gZERms-5" edge="1">
          <mxGeometry relative="1" as="geometry" />
        </mxCell>
        <mxCell id="iejDGMarH2Thm3gZERms-27" value="Sensors" style="ellipse;shape=cloud;whiteSpace=wrap;html=1;" parent="1" vertex="1">
          <mxGeometry x="580" y="470" width="120" height="80" as="geometry" />
        </mxCell>
        <mxCell id="iejDGMarH2Thm3gZERms-29" value="User" style="swimlane;childLayout=stackLayout;horizontal=1;startSize=50;horizontalStack=0;rounded=1;fontSize=14;fontStyle=0;strokeWidth=2;resizeParent=0;resizeLast=1;shadow=0;dashed=0;align=center;arcSize=4;whiteSpace=wrap;html=1;" parent="1" vertex="1">
          <mxGeometry x="120" y="660" width="130" height="110" as="geometry" />
        </mxCell>
        <mxCell id="iejDGMarH2Thm3gZERms-30" value="&lt;div&gt;username&lt;/div&gt;&lt;div&gt;password&lt;/div&gt;&lt;div&gt;&lt;br&gt;&lt;/div&gt;" style="align=left;strokeColor=none;fillColor=none;spacingLeft=4;spacingRight=4;fontSize=12;verticalAlign=top;resizable=0;rotatable=0;part=1;html=1;whiteSpace=wrap;" parent="iejDGMarH2Thm3gZERms-29" vertex="1">
          <mxGeometry y="50" width="130" height="60" as="geometry" />
        </mxCell>
        <mxCell id="iejDGMarH2Thm3gZERms-41" value="" style="edgeStyle=orthogonalEdgeStyle;rounded=0;orthogonalLoop=1;jettySize=auto;html=1;" parent="1" source="iejDGMarH2Thm3gZERms-37" target="iejDGMarH2Thm3gZERms-30" edge="1">
          <mxGeometry relative="1" as="geometry" />
        </mxCell>
        <mxCell id="iejDGMarH2Thm3gZERms-37" value="Profile" style="swimlane;childLayout=stackLayout;horizontal=1;startSize=50;horizontalStack=0;rounded=1;fontSize=14;fontStyle=0;strokeWidth=2;resizeParent=0;resizeLast=1;shadow=0;dashed=0;align=center;arcSize=4;whiteSpace=wrap;html=1;" parent="1" vertex="1">
          <mxGeometry x="125" y="830" width="120" height="90" as="geometry" />
        </mxCell>
        <mxCell id="iejDGMarH2Thm3gZERms-38" value="&lt;div&gt;phone number&lt;/div&gt;&lt;div&gt;address&lt;/div&gt;" style="align=left;strokeColor=none;fillColor=none;spacingLeft=4;spacingRight=4;fontSize=12;verticalAlign=top;resizable=0;rotatable=0;part=1;html=1;whiteSpace=wrap;" parent="iejDGMarH2Thm3gZERms-37" vertex="1">
          <mxGeometry y="50" width="120" height="40" as="geometry" />
        </mxCell>
        <mxCell id="iejDGMarH2Thm3gZERms-46" value="Sensor" style="swimlane;childLayout=stackLayout;horizontal=1;startSize=50;horizontalStack=0;rounded=1;fontSize=14;fontStyle=0;strokeWidth=2;resizeParent=0;resizeLast=1;shadow=0;dashed=0;align=center;arcSize=4;whiteSpace=wrap;html=1;" parent="1" vertex="1">
          <mxGeometry x="372.25" y="660" width="106" height="90" as="geometry" />
        </mxCell>
        <mxCell id="iejDGMarH2Thm3gZERms-47" value="&lt;div&gt;Location&lt;/div&gt;&lt;div&gt;serial number&lt;/div&gt;" style="align=left;strokeColor=none;fillColor=none;spacingLeft=4;spacingRight=4;fontSize=12;verticalAlign=top;resizable=0;rotatable=0;part=1;html=1;whiteSpace=wrap;" parent="iejDGMarH2Thm3gZERms-46" vertex="1">
          <mxGeometry y="50" width="106" height="40" as="geometry" />
        </mxCell>
        <mxCell id="iejDGMarH2Thm3gZERms-55" value="" style="edgeStyle=orthogonalEdgeStyle;rounded=0;orthogonalLoop=1;jettySize=auto;html=1;" parent="1" source="iejDGMarH2Thm3gZERms-50" target="iejDGMarH2Thm3gZERms-47" edge="1">
          <mxGeometry relative="1" as="geometry" />
        </mxCell>
        <mxCell id="iejDGMarH2Thm3gZERms-50" value="&lt;div&gt;DeviceSignal&lt;/div&gt;" style="swimlane;childLayout=stackLayout;horizontal=1;startSize=50;horizontalStack=0;rounded=1;fontSize=14;fontStyle=0;strokeWidth=2;resizeParent=0;resizeLast=1;shadow=0;dashed=0;align=center;arcSize=4;whiteSpace=wrap;html=1;" parent="1" vertex="1">
          <mxGeometry x="360" y="910" width="130.5" height="110" as="geometry" />
        </mxCell>
        <mxCell id="iejDGMarH2Thm3gZERms-51" value="&lt;div&gt;value&lt;/div&gt;&lt;div&gt;signal level&lt;/div&gt;&lt;div&gt;timestamp&lt;/div&gt;" style="align=left;strokeColor=none;fillColor=none;spacingLeft=4;spacingRight=4;fontSize=12;verticalAlign=top;resizable=0;rotatable=0;part=1;html=1;whiteSpace=wrap;" parent="iejDGMarH2Thm3gZERms-50" vertex="1">
          <mxGeometry y="50" width="130.5" height="60" as="geometry" />
        </mxCell>
        <mxCell id="iejDGMarH2Thm3gZERms-56" value="Do we need to log alerts to the database?" style="shape=note;size=20;whiteSpace=wrap;html=1;" parent="1" vertex="1">
          <mxGeometry x="510" y="690" width="100" height="100" as="geometry" />
        </mxCell>
        <mxCell id="gGpeqNFmnR-7ufZv6hqG-2" value="" style="endArrow=classic;startArrow=classic;html=1;rounded=0;exitX=1;exitY=0;exitDx=0;exitDy=0;entryX=0;entryY=0;entryDx=0;entryDy=0;" edge="1" parent="1" source="iejDGMarH2Thm3gZERms-30" target="iejDGMarH2Thm3gZERms-47">
          <mxGeometry width="50" height="50" relative="1" as="geometry">
            <mxPoint x="390" y="730" as="sourcePoint" />
            <mxPoint x="440" y="680" as="targetPoint" />
          </mxGeometry>
        </mxCell>
        <mxCell id="gGpeqNFmnR-7ufZv6hqG-3" value="&lt;div&gt;Many to Many&lt;/div&gt;&lt;div&gt;&lt;br&gt;&lt;/div&gt;" style="edgeLabel;html=1;align=center;verticalAlign=middle;resizable=0;points=[];" vertex="1" connectable="0" parent="gGpeqNFmnR-7ufZv6hqG-2">
          <mxGeometry x="0.0143" y="-3" relative="1" as="geometry">
            <mxPoint as="offset" />
          </mxGeometry>
        </mxCell>
      </root>
    </mxGraphModel>
  </diagram>
</mxfile>
